<mxfile host="app.diagrams.net" modified="2023-10-11T13:47:45.689Z" agent="Mozilla/5.0 (Windows NT 10.0; Win64; x64) AppleWebKit/537.36 (KHTML, like Gecko) Chrome/117.0.0.0 Safari/537.36" etag="cA9airtBGLd1lSJP6Gol" version="21.7.5" type="google">
  <diagram name="Page-1" id="Xnk1GI-wJ3fgoyukveEM">
    <mxGraphModel grid="1" page="1" gridSize="10" guides="1" tooltips="1" connect="1" arrows="1" fold="1" pageScale="1" pageWidth="850" pageHeight="1100" math="0" shadow="0">
      <root>
        <mxCell id="0" />
        <mxCell id="1" parent="0" />
        <mxCell id="uxwA1LraNM_OUbo4_wFK-2" value="" style="rounded=1;whiteSpace=wrap;html=1;fillColor=#d5e8d4;strokeColor=#82b366;" vertex="1" parent="1">
          <mxGeometry x="180" y="80" width="560" height="380" as="geometry" />
        </mxCell>
        <mxCell id="uxwA1LraNM_OUbo4_wFK-1" value="" style="rounded=0;whiteSpace=wrap;html=1;fillColor=#C2C2C2;gradientColor=none;" vertex="1" parent="1">
          <mxGeometry x="235" y="140" width="190" height="260" as="geometry" />
        </mxCell>
        <mxCell id="uxwA1LraNM_OUbo4_wFK-3" value="Target Machine" style="text;html=1;strokeColor=none;fillColor=none;align=center;verticalAlign=middle;whiteSpace=wrap;rounded=0;" vertex="1" parent="1">
          <mxGeometry x="300" y="100" width="60" height="30" as="geometry" />
        </mxCell>
        <mxCell id="uxwA1LraNM_OUbo4_wFK-4" value="" style="rounded=0;whiteSpace=wrap;html=1;fillColor=#C4C4C4;gradientColor=none;" vertex="1" parent="1">
          <mxGeometry x="510" y="140" width="190" height="260" as="geometry" />
        </mxCell>
        <mxCell id="uxwA1LraNM_OUbo4_wFK-5" value="Authenticator" style="text;html=1;strokeColor=none;fillColor=none;align=center;verticalAlign=middle;whiteSpace=wrap;rounded=0;" vertex="1" parent="1">
          <mxGeometry x="565" y="100" width="60" height="30" as="geometry" />
        </mxCell>
        <mxCell id="uxwA1LraNM_OUbo4_wFK-12" style="edgeStyle=orthogonalEdgeStyle;rounded=0;orthogonalLoop=1;jettySize=auto;html=1;exitX=1;exitY=0.5;exitDx=0;exitDy=0;entryX=0;entryY=0.5;entryDx=0;entryDy=0;" edge="1" parent="1" source="uxwA1LraNM_OUbo4_wFK-6" target="uxwA1LraNM_OUbo4_wFK-8">
          <mxGeometry relative="1" as="geometry" />
        </mxCell>
        <mxCell id="uxwA1LraNM_OUbo4_wFK-6" value="userCheck.sh" style="text;html=1;strokeColor=none;fillColor=none;align=center;verticalAlign=middle;whiteSpace=wrap;rounded=0;" vertex="1" parent="1">
          <mxGeometry x="285" y="170" width="90" height="30" as="geometry" />
        </mxCell>
        <mxCell id="uxwA1LraNM_OUbo4_wFK-16" style="edgeStyle=orthogonalEdgeStyle;rounded=0;orthogonalLoop=1;jettySize=auto;html=1;exitX=0;exitY=0.5;exitDx=0;exitDy=0;entryX=0.5;entryY=0;entryDx=0;entryDy=0;" edge="1" parent="1" source="uxwA1LraNM_OUbo4_wFK-7" target="uxwA1LraNM_OUbo4_wFK-10">
          <mxGeometry relative="1" as="geometry" />
        </mxCell>
        <mxCell id="uxwA1LraNM_OUbo4_wFK-7" value="parser.py" style="text;html=1;strokeColor=none;fillColor=none;align=center;verticalAlign=middle;whiteSpace=wrap;rounded=0;" vertex="1" parent="1">
          <mxGeometry x="575" y="220" width="60" height="30" as="geometry" />
        </mxCell>
        <mxCell id="uxwA1LraNM_OUbo4_wFK-9" style="edgeStyle=orthogonalEdgeStyle;rounded=0;orthogonalLoop=1;jettySize=auto;html=1;exitX=0.5;exitY=1;exitDx=0;exitDy=0;" edge="1" parent="1" source="uxwA1LraNM_OUbo4_wFK-8" target="uxwA1LraNM_OUbo4_wFK-7">
          <mxGeometry relative="1" as="geometry" />
        </mxCell>
        <mxCell id="uxwA1LraNM_OUbo4_wFK-8" value="users_TIME.txt" style="text;html=1;strokeColor=none;fillColor=none;align=center;verticalAlign=middle;whiteSpace=wrap;rounded=0;" vertex="1" parent="1">
          <mxGeometry x="552.5" y="170" width="105" height="30" as="geometry" />
        </mxCell>
        <mxCell id="uxwA1LraNM_OUbo4_wFK-17" style="edgeStyle=orthogonalEdgeStyle;rounded=0;orthogonalLoop=1;jettySize=auto;html=1;exitX=0;exitY=0.5;exitDx=0;exitDy=0;entryX=1;entryY=0.5;entryDx=0;entryDy=0;" edge="1" parent="1" source="uxwA1LraNM_OUbo4_wFK-10" target="uxwA1LraNM_OUbo4_wFK-14">
          <mxGeometry relative="1" as="geometry" />
        </mxCell>
        <mxCell id="uxwA1LraNM_OUbo4_wFK-10" value="restart.sh" style="text;html=1;strokeColor=none;fillColor=none;align=center;verticalAlign=middle;whiteSpace=wrap;rounded=0;" vertex="1" parent="1">
          <mxGeometry x="510" y="255" width="60" height="30" as="geometry" />
        </mxCell>
        <mxCell id="uxwA1LraNM_OUbo4_wFK-13" value="ssh - sends file" style="text;html=1;strokeColor=none;fillColor=none;align=center;verticalAlign=middle;whiteSpace=wrap;rounded=0;" vertex="1" parent="1">
          <mxGeometry x="440" y="150" width="60" height="30" as="geometry" />
        </mxCell>
        <mxCell id="uxwA1LraNM_OUbo4_wFK-14" value="sshd - service" style="text;html=1;strokeColor=none;fillColor=none;align=center;verticalAlign=middle;whiteSpace=wrap;rounded=0;" vertex="1" parent="1">
          <mxGeometry x="285" y="220" width="60" height="30" as="geometry" />
        </mxCell>
        <mxCell id="uxwA1LraNM_OUbo4_wFK-19" value="logs out user after x time logged in" style="text;html=1;strokeColor=none;fillColor=none;align=center;verticalAlign=middle;whiteSpace=wrap;rounded=0;" vertex="1" parent="1">
          <mxGeometry x="440" y="200" width="60" height="60" as="geometry" />
        </mxCell>
        <mxCell id="uxwA1LraNM_OUbo4_wFK-20" value="Authenticator pubkey" style="text;html=1;strokeColor=none;fillColor=none;align=center;verticalAlign=middle;whiteSpace=wrap;rounded=0;" vertex="1" parent="1">
          <mxGeometry x="285" y="290" width="60" height="30" as="geometry" />
        </mxCell>
        <mxCell id="uxwA1LraNM_OUbo4_wFK-21" value="Target priv key" style="text;html=1;strokeColor=none;fillColor=none;align=center;verticalAlign=middle;whiteSpace=wrap;rounded=0;" vertex="1" parent="1">
          <mxGeometry x="285" y="330" width="60" height="40" as="geometry" />
        </mxCell>
        <mxCell id="uxwA1LraNM_OUbo4_wFK-22" value="Target&lt;br&gt;pubkey" style="text;html=1;strokeColor=none;fillColor=none;align=center;verticalAlign=middle;whiteSpace=wrap;rounded=0;" vertex="1" parent="1">
          <mxGeometry x="575" y="290" width="60" height="30" as="geometry" />
        </mxCell>
        <mxCell id="uxwA1LraNM_OUbo4_wFK-23" value="Authenticator priv key" style="text;html=1;strokeColor=none;fillColor=none;align=center;verticalAlign=middle;whiteSpace=wrap;rounded=0;" vertex="1" parent="1">
          <mxGeometry x="575" y="330" width="60" height="40" as="geometry" />
        </mxCell>
      </root>
    </mxGraphModel>
  </diagram>
</mxfile>
